<svg xmlns="http://www.w3.org/2000/svg" viewBox="0 0 620 180" role="img" aria-label="Yankee Gadgets logo">
  <g transform="translate(10,5) scale(0.155)">
    <path d="M0,0 L164,0 L182,1 L185,4 L190,13 L204,37 L208,44 L221,66 L225,73 L234,88 L248,112 L256,126 L264,139 L273,155 L276,159 L282,170 L290,184 L298,197 L310,218 L319,233 L327,246 L330,252 L338,265 L344,276 L352,290 L360,303 L366,313 L373,325 L373,328 L321,329 L306,329 L265,328 L262,325 L254,312 L241,289 L235,280 L229,269 L215,245 L207,232 L201,221 L193,208 L193,205 L191,205 L185,194 L172,172 L164,158 L154,141 L145,126 L130,100 L123,89 L122,86 L49,85 L44,80 L36,66 L29,55 L23,44 L15,31 L9,20 L0,5 Z " fill="#FF5014" transform="translate(120,216)"/>
    <path d="M0,0 L106,0 L106,6 L98,19 L92,30 L81,48 L76,57 L70,67 L64,78 L51,100 L41,117 L26,143 L18,156 L10,170 L-3,192 L-17,216 L-27,233 L-35,247 L-48,269 L-57,284 L-60,289 L-64,292 L-90,293 L-145,293 L-170,292 L-171,287 L-160,267 L-154,258 L-148,247 L-140,234 L-134,223 L-128,213 L-115,191 L-104,172 L-90,148 L-77,126 L-66,107 L-58,94 L-52,83 L-42,67 L-38,59 L-29,44 L-18,26 L-12,15 L-4,2 Z " fill="#FF5014" transform="translate(530,497)"/>
    <path d="M0,0 L103,0 L106,1 L103,10 L97,20 L91,31 L81,48 L70,67 L57,89 L47,106 L33,130 L19,154 L10,169 L4,180 L1,183 L-9,184 L-164,184 L-171,183 L-177,174 L-186,159 L-192,148 L-202,131 L-212,115 L-218,104 L-224,94 L-227,88 L-227,85 L-52,84 L-48,76 L-35,54 L-25,37 L-14,18 L-4,2 Z " fill="#FF5014" transform="translate(695,216)"/>
    <path d="M0,0 L16,0 L28,4 L38,10 L47,20 L53,32 L55,41 L55,55 L51,68 L45,77 L36,86 L24,92 L12,94 L-4,93 L-15,89 L-24,82 L-32,73 L-37,63 L-39,58 L-39,40 L-36,30 L-31,20 L-23,11 L-12,4 Z " fill="#0A0A0C" transform="translate(554,695)"/>
  </g>
  <text x="155" y="86" font-family="'Space Grotesk', 'Segoe UI', system-ui, sans-serif" font-weight="700" font-size="52" letter-spacing="0.5" fill="#0A0A0C">yankee</text>
  <text x="155" y="134" font-family="'Space Grotesk', 'Segoe UI', system-ui, sans-serif" font-weight="500" font-size="32" letter-spacing="3" fill="#5B5B66">gadgets</text>
</svg>
